<svg xmlns="http://www.w3.org/2000/svg" viewBox="0 0 18.65 15.14"><defs><style>.cls-1{fill:none;stroke:#0260c0;stroke-linecap:round;stroke-miterlimit:10;stroke-width:0.5px;}</style></defs><title>Asset 33</title><g id="Layer_2" data-name="Layer 2"><g id="Layer_1-2" data-name="Layer 1"><path class="cls-1" d="M6.05,7.82V9.7a.56.56,0,0,0,.55.56H17.84a.56.56,0,0,0,.56-.56V8.25a1,1,0,0,0-1-1H6.6A.56.56,0,0,0,6.05,7.82Z"/><path class="cls-1" d="M6.05,8H3.12a.78.78,0,0,1-.78-.78V3.4a1,1,0,0,0-1-1h0a1,1,0,0,0-1,1v8.8H18.4V9.7"/><path class="cls-1" d="M18.4,12.2v2.69H17.22s-.32-2.69-1.89-2.69"/><path class="cls-1" d="M.3,12.2v2.69H1.58s0-2.69,2.2-2.69"/><circle class="cls-1" cx="1.31" cy="1.31" r="1.06"/><path class="cls-1" d="M6.42,7.29s-1.3-3.8-4-3.35"/></g></g></svg>