<svg xmlns="http://www.w3.org/2000/svg" viewBox="0 0 57.08 57.09"><defs><style>.cls-1{fill:#0260c0;}</style></defs><title>Asset 50</title><g id="Layer_2" data-name="Layer 2"><g id="Capa_1" data-name="Capa 1"><path class="cls-1" d="M48.72,8.36A28.54,28.54,0,0,0,8.36,48.73,28.54,28.54,0,0,0,48.72,8.36ZM28.54,54.46A25.92,25.92,0,1,1,54.45,28.54,25.94,25.94,0,0,1,28.54,54.46Z"/><path class="cls-1" d="M36.21,34.9a7.73,7.73,0,0,1-6,7.47l-.39.09v2.42a1.32,1.32,0,1,1-2.63,0V42.46l-.38-.09a7.73,7.73,0,0,1-6-7.47,1.32,1.32,0,1,1,2.63,0,5,5,0,1,0,5-5,7.66,7.66,0,0,1-1.7-15.14l.38-.09V12.21a1.32,1.32,0,1,1,2.63,0v2.42l.39.09a7.72,7.72,0,0,1,6,7.47,1.32,1.32,0,1,1-2.63,0,5,5,0,1,0-5,5A7.68,7.68,0,0,1,36.21,34.9Z"/></g></g></svg>