<svg xmlns="http://www.w3.org/2000/svg" viewBox="0 0 26.51 11.97"><defs><style>.cls-1{fill:none;stroke:#0260c0;stroke-linecap:round;stroke-miterlimit:10;stroke-width:0.5px;}</style></defs><title>Asset 34</title><g id="Layer_2" data-name="Layer 2"><g id="Layer_1-2" data-name="Layer 1"><line class="cls-1" x1="0.25" y1="11.72" x2="11.72" y2="0.25"/><polyline class="cls-1" points="8.93 0.25 10.57 1.89 16.43 1.89 26.27 11.72"/><line class="cls-1" x1="16.43" y1="1.89" x2="14.82" y2="0.27"/><polyline class="cls-1" points="17.6 0.25 10.4 7.45 10.4 11.53 21.95 11.53 21.95 7.41"/><path class="cls-1" d="M10.4,11.53H4.49s-.07-4,0-4.1,5.91,0,5.91,0"/><polyline class="cls-1" points="6.28 11.53 6.28 9.14 8.68 9.14 8.68 11.53"/><polyline class="cls-1" points="12.28 11.53 12.28 7.89 15.36 4.81 17.04 4.81 20.13 7.9 20.13 11.53"/><line class="cls-1" x1="19.21" y1="11.53" x2="16.62" y2="4.81"/><line class="cls-1" x1="13.23" y1="11.53" x2="15.79" y2="4.81"/></g></g></svg>