<svg xmlns="http://www.w3.org/2000/svg" viewBox="0 0 73.93 50.87"><defs><style>.cls-1{fill:#0260c0;}</style></defs><title>Asset 65</title><g id="Layer_2" data-name="Layer 2"><g id="Capa_1" data-name="Capa 1"><path class="cls-1" d="M73.76,38.85C72.27,30,68.62,26.79,67.42,25.74l-.12-.1c-.38-.19-.87-.46-1.4-.76a38,38,0,0,0-6.69-3.17l-.53-.16.48-.29a11.53,11.53,0,0,0,5.31-7.57,12.71,12.71,0,0,0-2.6-10.24A3.34,3.34,0,0,0,61,2.62c-4.26-3-9-3.44-13.08-1.32a11.46,11.46,0,0,0-.62,20l.5.3-.57.15a19.8,19.8,0,0,0-10.13,6l-.19.22-.19-.23a14.53,14.53,0,0,0-1.89-2l-.13-.11c-.39-.2-.9-.48-1.45-.79a37.85,37.85,0,0,0-6.64-3.14l-.53-.16.48-.29a11.5,11.5,0,0,0,5.3-7.56,12.73,12.73,0,0,0-2.6-10.25,3.48,3.48,0,0,0-.84-.83c-4.26-3-9-3.44-13.09-1.32a11.46,11.46,0,0,0-.62,20l.5.3-.57.15C.18,25.57.16,38.68.17,38.81A20.94,20.94,0,0,0,0,41.51v9.36H73.93V41.51A21.59,21.59,0,0,0,73.76,38.85ZM43.82,11.45A9.34,9.34,0,0,1,49,3.06c3.41-1.72,7.37-1.22,10.85,1.36a2,2,0,0,1,.36.35c2.53,3.39,3.08,7.27,1.51,10.64a9.35,9.35,0,0,1-8,5.41H52.68A9.38,9.38,0,0,1,43.82,11.45Zm-32.59,0a9.34,9.34,0,0,1,5.18-8.39c3.41-1.72,7.37-1.22,10.85,1.36a2,2,0,0,1,.36.35C30.15,8.16,30.7,12,29.13,15.41a9.35,9.35,0,0,1-8,5.41H20.09A9.38,9.38,0,0,1,11.23,11.45ZM32.59,41.51v7.3H2v-7.3a18.74,18.74,0,0,1,18-18.61c.2,0,.38,0,.56,0a4.35,4.35,0,0,0,.51,0A18.6,18.6,0,0,1,35.25,30l.11.13-.09.15a18.31,18.31,0,0,0-2.51,8.52A20.94,20.94,0,0,0,32.59,41.51Zm39.25,7.3H34.61v-7.3A18.65,18.65,0,0,1,52.67,22.9a3.58,3.58,0,0,0,.56,0,4.43,4.43,0,0,0,.51,0,18.76,18.76,0,0,1,18.1,18.61Z"/></g></g></svg>