<svg xmlns="http://www.w3.org/2000/svg" viewBox="0 0 63.61 63.87"><defs><style>.cls-1,.cls-2{fill:#0260c0;}.cls-1{stroke:#fff;stroke-miterlimit:10;stroke-width:0.75px;}</style></defs><title>Asset 43</title><g id="Layer_2" data-name="Layer 2"><g id="Capa_1" data-name="Capa 1"><path class="cls-1" d="M61.86,5.64H53.22V1.76a1.38,1.38,0,1,0-2.76,0V5.64H33.18V1.76a1.38,1.38,0,0,0-2.76,0V5.64H13.15V1.76a1.38,1.38,0,0,0-2.76,0V5.64H1.75A1.37,1.37,0,0,0,.38,7V62.11a1.37,1.37,0,0,0,1.37,1.38H49.33a1.43,1.43,0,0,0,1-.41L62.83,50.57a1.39,1.39,0,0,0,.4-1V7A1.38,1.38,0,0,0,61.86,5.64ZM23.16,8.4h7.26v2.38a1.38,1.38,0,0,0,2.76,0V8.4h7.26v9.76H23.16Zm-20,0h7.26v2.38a1.38,1.38,0,0,0,2.76,0V8.4h7.26v9.76H3.13ZM50.71,58.78V51h7.82Zm9.77-10.57H49.33A1.38,1.38,0,0,0,48,49.59V60.73H3.13V20.91H60.48Zm0-30H43.2V8.4h7.26v2.38a1.38,1.38,0,0,0,2.76,0V8.4h7.26Z"/><path class="cls-2" d="M42.83,30.18v20a1,1,0,1,1-2,0v-19H37.54a1,1,0,0,1,0-2h4.28A1,1,0,0,1,42.83,30.18Z"/><path class="cls-2" d="M31.08,50.16a1,1,0,0,1-1,1c-8.61.11-10,0-10.34-.08a1.08,1.08,0,0,1-.73-.72,1.54,1.54,0,0,1,.34-1.31c.19-.27.46-.62.89-1.19,1-1.31,2.85-3.74,6-8.22a10.25,10.25,0,0,0,1.92-3.89l0-.11c0-.18.06-.4.06-.52a3.69,3.69,0,0,0-1.06-2.69,4.14,4.14,0,0,0-3-1.25,4,4,0,0,0-3.95,3.23,1,1,0,0,1-.41.64,1,1,0,0,1-1.4-.27,1,1,0,0,1-.15-.75,6,6,0,0,1,12,1.15c0,.1-.09.81-.12,1a14.15,14.15,0,0,1-2.25,4.62c-1.91,2.72-3.56,5-5.06,7l-1.06,1.4h2.43c1.75,0,3.88,0,5.89,0A1,1,0,0,1,31.08,50.16Z"/></g></g></svg>