<svg xmlns="http://www.w3.org/2000/svg" viewBox="0 0 89.03 56.26"><defs><style>.cls-1{fill:#0260c0;}</style></defs><title>Asset 67</title><g id="Layer_2" data-name="Layer 2"><g id="Capa_1" data-name="Capa 1"><path class="cls-1" d="M89,41.73A17.72,17.72,0,0,0,77.15,25.07l-.7-.24.6-.42a9.92,9.92,0,0,0,4.11-6.64,11.2,11.2,0,0,0-2.61-8.7,1.29,1.29,0,0,0-.24-.23c-3.73-2.65-7.9-3.12-11.44-1.29a9.87,9.87,0,0,0-1.14,16.86l.6.42-.7.24a17.35,17.35,0,0,0-5.93,3.48l-.24.22-.25-.22A22.45,22.45,0,0,0,51,24.1l-.81-.25.73-.43a12.64,12.64,0,0,0,5.84-8.34c.53-2.65.46-6.76-2.86-11.29A4,4,0,0,0,53,2.9c-4.7-3.27-10-3.8-14.42-1.47a12.62,12.62,0,0,0-.69,22l.72.43-.81.25a22.51,22.51,0,0,0-8.09,4.4l-.25.21-.24-.21a17.37,17.37,0,0,0-5.86-3.41l-.69-.24.6-.42a9.94,9.94,0,0,0,4.1-6.64,11.19,11.19,0,0,0-2.61-8.71,2.61,2.61,0,0,0-.24-.23C20.81,6.2,16.65,5.74,13.1,7.57A9.86,9.86,0,0,0,12,24.42l.6.43-.69.24A17.6,17.6,0,0,0,0,41.73v.87H21.85L21.8,43a23.24,23.24,0,0,0-.2,3V56.26H67.29V46a23.24,23.24,0,0,0-.2-3l0-.42H89ZM63.61,16.31a7.75,7.75,0,0,1,4.34-7c2.86-1.42,6.17-1,9.06,1.25l.07.07c2.22,2.86,2.7,6.14,1.34,9a7.76,7.76,0,0,1-6.88,4.45h-.29A7.81,7.81,0,0,1,63.61,16.31ZM33.87,12.62a10.49,10.49,0,0,1,5.81-9.41C43.51,1.29,48,1.85,51.85,4.76a1.8,1.8,0,0,1,.37.36c2.84,3.79,3.47,8.14,1.72,11.91A10.52,10.52,0,0,1,45,23.12H43.81A10.53,10.53,0,0,1,33.87,12.62ZM9.79,16.31a7.75,7.75,0,0,1,4.34-7c2.87-1.42,6.17-1,9.06,1.25l.07.07c2.21,2.86,2.7,6.14,1.34,9a7.76,7.76,0,0,1-6.88,4.45h-.29A7.81,7.81,0,0,1,9.79,16.31ZM22.21,40.49H2.09l0-.41A15.5,15.5,0,0,1,17.46,26.19h.22a15.43,15.43,0,0,1,9.92,3.69l.3.26-.27.28a23,23,0,0,0-5.34,9.79ZM65.16,54.17H23.66V46A20.89,20.89,0,0,1,43.79,25.23c.23,0,.43,0,.62,0a5.47,5.47,0,0,0,.57,0A20.9,20.9,0,0,1,65.16,46Zm1.45-13.68-.08-.28a23.15,23.15,0,0,0-5.29-9.72L61,30.21l.29-.25a15.48,15.48,0,0,1,10-3.77h.22A15.5,15.5,0,0,1,86.83,40.08l0,.41Z"/></g></g></svg>