<svg xmlns="http://www.w3.org/2000/svg" viewBox="0 0 486.93 435.71"><defs><style>.cls-1{fill:#0260c0;}</style></defs><title>Asset 1</title><g id="Layer_2" data-name="Layer 2"><g id="Icons"><path class="cls-1" d="M452.16,218.2a8.23,8.23,0,0,1-8.22-8.22h0V106.88H361.73a8.22,8.22,0,0,1,0-16.44h90.43a8.22,8.22,0,0,1,8.22,8.22h0V210a8.23,8.23,0,0,1-8.22,8.21Z"/><path class="cls-1" d="M452.16,435.71H69.88A70,70,0,0,1,0,365.83V53.43a8.22,8.22,0,0,1,16.44,0V365.84a53.5,53.5,0,0,0,53.44,53.44H443.94V308.63a8.22,8.22,0,0,1,16.44,0h0V427.5A8.22,8.22,0,0,1,452.16,435.71Z"/><path class="cls-1" d="M470.49,316.85H363a57.55,57.55,0,1,1,0-115.09H470.49a16.47,16.47,0,0,1,16.44,16.44v82.21a16.47,16.47,0,0,1-16.44,16.44Zm0-98.65H363a41.11,41.11,0,1,0,0,82.21H470.49Z"/><path class="cls-1" d="M361.73,106.87H53.43A53.44,53.44,0,0,1,53.43,0h300A16.52,16.52,0,0,1,370,16.52V98.65a8.22,8.22,0,0,1-8.22,8.22ZM53.43,16.44a37,37,0,0,0,0,74h300V16.52Z"/><path class="cls-1" d="M361.73,61.65H89.12a8.22,8.22,0,0,1,0-16.43H361.73a8.22,8.22,0,0,1,0,16.43Z"/><path class="cls-1" d="M370.27,284.68a27.48,27.48,0,1,1,27.48-27.47A27.48,27.48,0,0,1,370.27,284.68Zm0-40.44a13,13,0,1,0,13,13h0A13,13,0,0,0,370.27,244.24Z"/></g></g></svg>