<svg xmlns="http://www.w3.org/2000/svg" viewBox="0 0 51.78 56.47"><defs><style>.cls-1{fill:#0260c0;stroke:#fff;stroke-miterlimit:10;stroke-width:0.25px;}</style></defs><title>Yes I am flexible</title><g id="Layer_2" data-name="Layer 2"><g id="Capa_1" data-name="Capa 1"><g id="Wallet-2"><path class="cls-1" d="M51.53,18.44,41.23.59A.94.94,0,0,0,40,.25L7.49,19a.93.93,0,0,0-.34,1.28L8.5,22.61H4.81A4.68,4.68,0,0,0,.13,27.29h0V51.66a4.67,4.67,0,0,0,4.68,4.68H44.16A2.8,2.8,0,0,0,47,53.53V46.8a2.82,2.82,0,0,0,1.88-2.64V42.29A2.83,2.83,0,0,0,47,39.65V25.42A2.78,2.78,0,0,0,45.54,23l5.65-3.27A.93.93,0,0,0,51.53,18.44Zm-7.37,36H4.81A2.81,2.81,0,0,1,2,51.66V31a4.61,4.61,0,0,0,2.81,1H45.1v7.5H40.42a2.81,2.81,0,0,0-2.82,2.81v1.87A2.81,2.81,0,0,0,40.42,47H45.1v6.56A.94.94,0,0,1,44.16,54.47ZM47,44.16a.94.94,0,0,1-.93.94H40.42a.94.94,0,0,1-.94-.94V42.29a.94.94,0,0,1,.94-.94H46a.94.94,0,0,1,.93.94ZM44.16,24.49a.94.94,0,0,1,.94.93v4.69H4.81a2.81,2.81,0,0,1,0-5.62H9.58l1.08,1.87H4.81a.94.94,0,1,0,0,1.87H42.29a.94.94,0,1,0,0-1.87H39.7l3.24-1.87Zm-29.74-1a3.78,3.78,0,0,0,1-3.68l6.06-3.5a8.38,8.38,0,0,0,3.18,10H19a.94.94,0,0,0,.28-.1l.81-.47a.93.93,0,0,0,.38-1.27.94.94,0,0,0-1.27-.38l-.05,0-.81.47a.94.94,0,0,0,.28,1.72H16.07Zm28.84-4.62-6.06,3.5A8.41,8.41,0,0,0,32.39,11.5a8.07,8.07,0,0,0-.87-.29,6.72,6.72,0,0,0-.87-.18l6.06-3.5a3.74,3.74,0,0,0,3.68,1l3.87,6.7a3.71,3.71,0,0,0-1,3.67ZM26.08,13.67a6.55,6.55,0,0,1,9.59,7.39,6.64,6.64,0,0,1-3,4l-.07,0A6.56,6.56,0,0,1,26,13.69ZM36,26.36H34.07L44.91,20.1a1,1,0,0,0,.35-1.28h0a1.9,1.9,0,0,1-.18-1.42,1.84,1.84,0,0,1,.87-1.13A.94.94,0,0,0,46.29,15h0L41.6,6.87a.93.93,0,0,0-1.28-.34h0a1.87,1.87,0,0,1-2.56-.69h0a.93.93,0,0,0-1.28-.34L13.77,18.62a.94.94,0,0,0-.35,1.28,1.87,1.87,0,0,1-.69,2.56.94.94,0,0,0-.34,1.27l1.52,2.63H12.83L9.24,20.14,40.07,2.34l9.37,16.23Z"/><path class="cls-1" d="M26,19.15a2.82,2.82,0,0,0,3.84,1,.93.93,0,1,1,.93,1.62.94.94,0,0,1-1.28-.34.93.93,0,0,0-1.62.93,2.81,2.81,0,0,0,2.44,1.41,2.87,2.87,0,0,0,.5-.07l.09.16A.94.94,0,1,0,32.49,23l-.08-.14a2.81,2.81,0,0,0-3.54-4.26.92.92,0,0,1-1.28-.33.93.93,0,0,1,.34-1.28h0a.94.94,0,0,1,1.28.34.93.93,0,0,0,1.27.36,1,1,0,0,0,.36-1.28h0A2.76,2.76,0,0,0,27.9,15l-.09-.15a.94.94,0,1,0-1.62.94h0l.09.15A2.79,2.79,0,0,0,26,19.15Z"/><path class="cls-1" d="M39.42,12.46l-.81.47a.93.93,0,0,0-.31,1.28,1,1,0,0,0,1.25.34l.81-.47a1,1,0,0,0,.38-1.27.93.93,0,0,0-1.27-.38Z"/><path class="cls-1" d="M42.29,42.29h-.94a.94.94,0,0,0,0,1.87h.94a.94.94,0,1,0,0-1.87Z"/><path class="cls-1" d="M12.31,50.72H6.68a.93.93,0,0,1-.93-.93V44.16a.94.94,0,0,0-1.88,0v5.63A2.81,2.81,0,0,0,6.68,52.6h5.63a.94.94,0,0,0,0-1.88Z"/></g></g></g></svg>