<svg xmlns="http://www.w3.org/2000/svg" viewBox="0 0 87.84 41.37"><defs><style>.cls-1{fill:#0260c0;}</style></defs><title>Asset 81</title><g id="Layer_2" data-name="Layer 2"><g id="Capa_1" data-name="Capa 1"><path class="cls-1" d="M87.77,26.74c-.57-3.44-2-4.62-2.43-5a17.57,17.57,0,0,0-3-1.48,4.5,4.5,0,0,0,1-6.75,1.37,1.37,0,0,0-.34-.34c-3.52-2.44-7.3,0-7.3,3.36a4.34,4.34,0,0,0,2.11,3.73A7.42,7.42,0,0,0,74,22.56a12.73,12.73,0,0,0-5.85-4.12l-.5-.18.44-.31a7.35,7.35,0,0,0,3-4.88,8.22,8.22,0,0,0-1.92-6.4A.91.91,0,0,0,69,6.5a8,8,0,0,0-8.42-1A7.27,7.27,0,0,0,59.75,18l.45.31-.51.18A12.56,12.56,0,0,0,55.33,21l-.19.17L55,21a16.55,16.55,0,0,0-6-3.27l-.59-.17.53-.33a9.36,9.36,0,0,0,4.3-6.13,10.37,10.37,0,0,0-2.11-8.3,3,3,0,0,0-.67-.66C47-.27,43.09-.66,39.8,1.06a9.28,9.28,0,0,0-.5,16.16l.53.32-.6.18A16.71,16.71,0,0,0,33.28,21l-.17.15L32.92,21a12.65,12.65,0,0,0-4.31-2.51l-.5-.18.44-.31a7.31,7.31,0,0,0,3-4.88,8.23,8.23,0,0,0-1.92-6.4,1.37,1.37,0,0,0-.17-.17,8,8,0,0,0-8.42-.94A7.26,7.26,0,0,0,20.21,18l.45.31-.51.18a12.92,12.92,0,0,0-6.1,4.43,5.32,5.32,0,0,0-1-1.1,17.57,17.57,0,0,0-3-1.48,4.5,4.5,0,0,0,1-6.75,1.33,1.33,0,0,0-.33-.34c-3.53-2.44-7.3,0-7.3,3.36a4.35,4.35,0,0,0,2.1,3.73A6.85,6.85,0,0,0,.07,26.74a6.86,6.86,0,0,0-.07,1v3.57H27.49l0,.3a18.38,18.38,0,0,0-.14,2.18v7.56H60.9V33.81a18.38,18.38,0,0,0-.14-2.18l0-.3H87.84V27.75A6.86,6.86,0,0,0,87.77,26.74ZM76.65,16.57c0-2.64,3-4.59,5.81-2.53a.38.38,0,0,1,.11.11c2,2.7.22,5.67-2.33,5.81h-.4A3.39,3.39,0,0,1,76.65,16.57ZM58.2,12a5.7,5.7,0,0,1,3.19-5.13,6.21,6.21,0,0,1,6.67.92l0,0a6.22,6.22,0,0,1,1,6.61A5.73,5.73,0,0,1,64,17.72h-.22A5.75,5.75,0,0,1,58.2,12ZM36.33,9.28A7.71,7.71,0,0,1,40.6,2.36c2.82-1.41,6.08-1,8.95,1.14a2.23,2.23,0,0,1,.27.26,8.41,8.41,0,0,1,1.26,8.76A7.69,7.69,0,0,1,44.51,17h-.87A7.73,7.73,0,0,1,36.33,9.28ZM18.62,12a5.7,5.7,0,0,1,3.19-5.13,6.19,6.19,0,0,1,6.66.92l.05,0a6.19,6.19,0,0,1,1,6.61,5.73,5.73,0,0,1-5.06,3.28h-.21A5.75,5.75,0,0,1,18.62,12ZM4.36,16.57c0-2.64,3-4.59,5.82-2.53a.57.57,0,0,1,.11.11A3.48,3.48,0,0,1,8,20h-.4A3.4,3.4,0,0,1,4.36,16.57ZM.94,30.37V27.75a6.82,6.82,0,0,1,6.62-6.82H8a6.8,6.8,0,0,1,5.42,2.93,12.89,12.89,0,0,0-2,6.51Zm26.81-.6H13l0-.3a11.37,11.37,0,0,1,1.2-4h0a9.22,9.22,0,0,1,.65-1.09,11.35,11.35,0,0,1,9.42-5.09h.16A11.42,11.42,0,0,1,31.72,22l.22.19-.2.21a16.91,16.91,0,0,0-3.93,7.2ZM59.34,39.83H28.82v-6A15.37,15.37,0,0,1,43.63,18.55a3.54,3.54,0,0,0,.45,0,3,3,0,0,0,.42,0A15.37,15.37,0,0,1,59.34,33.81ZM60.4,29.77l0-.2a17,17,0,0,0-3.9-7.15l-.19-.21.22-.18a11.39,11.39,0,0,1,7.36-2.77H64a11.33,11.33,0,0,1,9.1,4.63A9.12,9.12,0,0,1,73.81,25a11.42,11.42,0,0,1,1.46,4.5l0,.3Zm26.47.6h-10a13,13,0,0,0-2.18-6.86,6.79,6.79,0,0,1,5.14-2.58h.41a6.81,6.81,0,0,1,6.62,6.82Z"/></g></g></svg>