<svg xmlns="http://www.w3.org/2000/svg" width="49.984" height="44.764" viewBox="0 0 49.984 44.764"><g transform="translate(0.25 0.25)"><g transform="translate(11.889 36.951)"><path d="M124.659,409.61a.966.966,0,1,0,.283.684A.973.973,0,0,0,124.659,409.61Z" transform="translate(-123.009 -409.327)" fill="#0260c0" stroke="#f4f8fd" stroke-width="0.5"/></g><g transform="translate(0 18.556)"><path d="M48.518,229.279h-2.9v-2.368h2.893a.966.966,0,0,0,.95-1.143l-1.111-5.976a.967.967,0,0,0-.95-.79H41.9a.967.967,0,0,0-.95.79l-1.111,5.976a.966.966,0,0,0,.95,1.143h2.893v2.368h-2.9a.964.964,0,0,0-.738.343,5.45,5.45,0,0,0-2.741-1.407v-4.928a3.677,3.677,0,0,0-3.673-3.673H27.449a3.663,3.663,0,0,0-2.706,1.193,3.663,3.663,0,0,0-2.706-1.193H15.851a3.677,3.677,0,0,0-3.673,3.673v4.928a5.449,5.449,0,0,0-2.743,1.407.963.963,0,0,0-.738-.343H5.8v-2.368H8.692a.966.966,0,0,0,.95-1.143l-1.111-5.976a.967.967,0,0,0-.95-.79h-5.5a.967.967,0,0,0-.95.79L.023,225.768a.966.966,0,0,0,.95,1.143H3.866v2.368H.966a.967.967,0,0,0-.966.966v13.5a.967.967,0,0,0,.966.966H48.518a.967.967,0,0,0,.966-.966v-13.5A.966.966,0,0,0,48.518,229.279Zm-46.382-4.3.752-4.043h3.89l.752,4.043Zm5.6,8.6v9.2h-5.8V231.212h5.8Zm17.977-10.293a1.742,1.742,0,0,1,1.74-1.74h6.185a1.742,1.742,0,0,1,1.74,1.74v4.832H25.709v-4.832Zm-11.6,0a1.742,1.742,0,0,1,1.74-1.74h6.185a1.742,1.742,0,0,1,1.74,1.74v4.832H14.112v-4.832ZM39.82,237.4H16.706a.966.966,0,0,0,0,1.933H39.82v3.447H9.665v-8.859h6.361a.966.966,0,0,0,0-1.933H10.047a3.531,3.531,0,0,1,3.145-1.933h23.1a3.532,3.532,0,0,1,3.528,3.528V237.4Zm2.136-12.419.752-4.043H46.6l.752,4.043Zm5.6,17.8h-5.8V231.212h5.8Z" transform="translate(0 -219.002)" fill="#0260c0" stroke="#f4f8fd" stroke-width="0.5"/></g><g transform="translate(6.287 0)"><path d="M80.459,27.006H66.018a.967.967,0,0,0-.966.966V38.024a.967.967,0,0,0,.966.966h14.44a.967.967,0,0,0,.966-.966V27.972A.967.967,0,0,0,80.459,27.006Zm-.966,10.051H66.985V28.939H79.492Z" transform="translate(-65.052 -27.006)" fill="#0260c0" stroke="#f4f8fd" stroke-width="0.5"/></g><g transform="translate(26.825 0)"><path d="M292.96,27.006H278.52a.967.967,0,0,0-.966.966V38.024a.967.967,0,0,0,.966.966h14.44a.967.967,0,0,0,.966-.966V27.972A.967.967,0,0,0,292.96,27.006Zm-.967,10.051H279.486V28.939h12.507Z" transform="translate(-277.553 -27.006)" fill="#0260c0" stroke="#f4f8fd" stroke-width="0.5"/></g><g transform="translate(19.441 31.539)"><path d="M202.8,353.611a.966.966,0,1,0,.283.683A.974.974,0,0,0,202.8,353.611Z" transform="translate(-201.147 -353.328)" fill="#0260c0" stroke="#f4f8fd" stroke-width="0.5"/></g></g></svg>