<svg xmlns="http://www.w3.org/2000/svg" viewBox="0 0 58.51 58.51"><defs><style>.cls-1{fill:#0260c0;}</style></defs><title>self booking</title><g id="Layer_2" data-name="Layer 2"><g id="Capa_1" data-name="Capa 1"><path class="cls-1" d="M53.84,0H4.67A4.67,4.67,0,0,0,0,4.67V34.55a4.68,4.68,0,0,0,4.67,4.67h7.16a.94.94,0,0,0,0-1.87H4.67a2.8,2.8,0,0,1-2.8-2.8V4.67a2.8,2.8,0,0,1,2.8-2.8H53.84a2.8,2.8,0,0,1,2.81,2.8V34.55a2.81,2.81,0,0,1-2.81,2.8H47.31a.94.94,0,1,0,0,1.87h6.53a4.68,4.68,0,0,0,4.67-4.67V4.67A4.67,4.67,0,0,0,53.84,0Z"/><path class="cls-1" d="M50.11,3.73H8.4a.94.94,0,0,0-.93.94V34.55a.93.93,0,0,0,.93.93h3.43a.94.94,0,0,0,0-1.87H9.34V5.6H49.18v28H47.31a.94.94,0,1,0,0,1.87h2.8a.93.93,0,0,0,.93-.93V4.67A.93.93,0,0,0,50.11,3.73Z"/><circle class="cls-1" cx="4.67" cy="19.61" r="0.93"/><path class="cls-1" d="M40.46,25.83a4,4,0,0,0-2.51.88,4,4,0,0,0-6.23-1.55,4,4,0,0,0-5.89-1.8V15.87a4,4,0,0,0-8.09,0V30.61a4.05,4.05,0,0,0-3.11,3.94v4.67a15,15,0,0,0,6.22,12.13v6.23a.94.94,0,0,0,1.87,0V52.5l.54.26a.93.93,0,1,0,.79-1.69A13.12,13.12,0,0,1,16.5,39.22V34.55a2.19,2.19,0,0,1,1.24-2v5.7a.94.94,0,1,0,1.87,0V15.87a2.18,2.18,0,1,1,4.36,0V31.49a.93.93,0,1,0,1.86,0V26.77a2.18,2.18,0,1,1,4.36,0v4.67a.94.94,0,0,0,1.87,0V28.32a2.18,2.18,0,0,1,4.36,0v3.12a.93.93,0,1,0,1.86,0V29.88a2.18,2.18,0,0,1,4.36,0v9.34a13.12,13.12,0,0,1-7.55,11.85.93.93,0,0,0-.45,1.24.92.92,0,0,0,.84.54,1,1,0,0,0,.4-.09l.54-.26v5.08a.93.93,0,1,0,1.86,0V51.35a15,15,0,0,0,6.23-12.13V29.88A4.06,4.06,0,0,0,40.46,25.83Z"/></g></g></svg>