<svg xmlns="http://www.w3.org/2000/svg" viewBox="0 0 97.8 48.81"><defs><style>.cls-1,.cls-2{fill:#0260c0;}.cls-2{fill-rule:evenodd;}</style></defs><title>Tailor Made</title><g id="Layer_2" data-name="Layer 2"><g id="Capa_1" data-name="Capa 1"><path class="cls-1" d="M19.56,23.41a2.61,2.61,0,0,0,1.57-1l5.62,3.81a.88.88,0,0,0,1-1.45L22.12,21l3-4.37,32.1,21.74a6.06,6.06,0,0,1-7.93,1L30.86,26.9a.88.88,0,0,0-1,1.45L48.27,40.8a7.8,7.8,0,0,0,10.82-2.08l.06-.09a.87.87,0,0,0-.23-1.21L26.05,15.16a2.6,2.6,0,0,0-.76-3.49l-2.22-1.5a11.55,11.55,0,1,0-6.74,12l1.28.87a2.58,2.58,0,0,0,1.95.4Zm-1-1.85-1.7-1.15a.87.87,0,0,0-.88-.05,9.7,9.7,0,0,1-4.43,1.05,9.84,9.84,0,1,1,9.79-10.68.9.9,0,0,0,.38.65l2.56,1.73a.87.87,0,0,1,.37.71.86.86,0,0,1-.14.48l-4.77,7A.85.85,0,0,1,18.59,21.56Z"/><path class="cls-1" d="M18.5,11.58A6.92,6.92,0,0,0,7.88,5.72a.87.87,0,0,0,.93,1.47A5.18,5.18,0,1,1,6.76,9.65.87.87,0,0,0,5.15,9,6.92,6.92,0,1,0,18.5,11.58Z"/><path class="cls-1" d="M40.81,21.55a.88.88,0,0,0-.38.73.81.81,0,0,0,.15.49.88.88,0,0,0,1.21.23l6.67-4.52a.87.87,0,0,0-1-1.45Z"/><path class="cls-1" d="M34.54,17.31a.88.88,0,0,0,1,1.45L49.18,9.5a6.14,6.14,0,0,1,8,1l-6.55,4.44a.87.87,0,0,0,1,1.44l7.32-5a.85.85,0,0,0,.36-.56.83.83,0,0,0-.13-.65l0,0a7.86,7.86,0,0,0-10.92-2.1Z"/><path class="cls-1" d="M19.43,45.74a11.55,11.55,0,0,0,3.64-7.09l2.22-1.51a2.6,2.6,0,0,0,.76-3.49l3.18-2.15a.87.87,0,1,0-1-1.44l-3.17,2.15-3-4.38.84-.57a.87.87,0,1,0-1-1.44l-.86.57a2.55,2.55,0,0,0-1.57-1,2.58,2.58,0,0,0-1.95.4l-1.28.87a11.4,11.4,0,0,0-4.75-1,11.58,11.58,0,1,0,7.85,20.08ZM1.74,37.24a9.85,9.85,0,0,1,9.84-9.84A9.71,9.71,0,0,1,16,28.46a.87.87,0,0,0,.88-.06l1.7-1.15a.85.85,0,0,1,1.18.23l4.77,7a.85.85,0,0,1-.23,1.18l-2.56,1.73a.9.9,0,0,0-.38.65,9.83,9.83,0,0,1-19.63-.84Z"/><path class="cls-1" d="M18.5,37.24a6.93,6.93,0,1,0-6.92,6.92,6.93,6.93,0,0,0,6.92-6.92Zm-12.11,0a5.19,5.19,0,1,1,5.19,5.18A5.2,5.2,0,0,1,6.39,37.24Z"/><path class="cls-1" d="M32,23.48h-.55a.87.87,0,0,0,0,1.74H32a.87.87,0,1,0,0-1.74Z"/><path class="cls-2" d="M55,21.16l.26,1.47c.89-.15,1.77-.27,2.66-.34l-.12-1.49C56.9,20.87,56,21,55,21.16Z"/><path class="cls-2" d="M50.14,22.36l.45,1.43c.86-.26,1.73-.51,2.61-.72l-.35-1.46C51.94,21.83,51,22.09,50.14,22.36Z"/><path class="cls-2" d="M45.44,24.13l.61,1.37c.82-.37,1.67-.7,2.51-1l-.51-1.41C47.17,23.4,46.3,23.75,45.44,24.13Z"/><path class="cls-2" d="M69.75,23.77,68.82,25c.34.25.63.56,1,.85a10.55,10.55,0,0,0,1.22,1l.83-1.25a9.57,9.57,0,0,1-1-.81C70.47,24.41,70.14,24.06,69.75,23.77Z"/><path class="cls-2" d="M65.17,21.42l-.43,1.44a12.38,12.38,0,0,1,2.38,1l.72-1.32A14.39,14.39,0,0,0,65.17,21.42Z"/><path class="cls-2" d="M60.13,20.71l0,1.5a19.16,19.16,0,0,1,2.63.2L63,20.93A21,21,0,0,0,60.13,20.71Z"/><path class="cls-2" d="M82.86,24.71l.68,1.34c.85-.44,1.68-.9,2.49-1.4l-.78-1.28C84.47,23.85,83.67,24.29,82.86,24.71Z"/><path class="cls-2" d="M78.34,26.42l.33,1.46A20.15,20.15,0,0,0,81.46,27l-.56-1.4A18.62,18.62,0,0,1,78.34,26.42Z"/><path class="cls-2" d="M73.7,26.42l-.43,1.44a9.45,9.45,0,0,0,3.07.35l-.07-1.5A7.88,7.88,0,0,1,73.7,26.42Z"/><path class="cls-2" d="M94.76,16l1,1.1c.68-.64,1.36-1.29,2-2L96.73,14C96.09,14.7,95.43,15.33,94.76,16Z"/><path class="cls-2" d="M91,19.22,92,20.38c.73-.6,1.45-1.2,2.15-1.82l-1-1.13C92.45,18,91.75,18.64,91,19.22Z"/><path class="cls-2" d="M87.11,22.17,88,23.41c.78-.54,1.54-1.09,2.29-1.66l-.91-1.19C88.6,21.12,87.86,21.65,87.11,22.17Z"/></g></g></svg>