<?xml version="1.0" encoding="UTF-8" standalone="no"?>
<!DOCTYPE svg PUBLIC "-//W3C//DTD SVG 1.1//EN" "http://www.w3.org/Graphics/SVG/1.1/DTD/svg11.dtd">
<svg width="100%" height="100%" viewBox="0 0 1057 400" version="1.1" xmlns="http://www.w3.org/2000/svg" xmlns:xlink="http://www.w3.org/1999/xlink" xml:space="preserve" xmlns:serif="http://www.serif.com/" style="fill-rule:evenodd;clip-rule:evenodd;stroke-linejoin:round;stroke-miterlimit:2;">
    <path d="M348.7,285.4L384.9,285.4L384.9,196.9C395.9,187.2 409.9,181.5 424.6,180.6C427,180.5 429.4,180.5 431.8,180.6L431.8,145.5L424.6,145.5C404.7,145.5 391.4,157.8 384.3,165.6L384.3,147.6L348.7,147.6L348.7,285.4Z" style="fill:#177fa4;fill-rule:nonzero;"/>
    <path d="M488.2,145.6C468.9,145.6 455.8,157.2 448.5,165L448.5,197C459.6,187.3 473.5,181.6 488.2,180.7C490.6,180.6 493,180.6 495.4,180.7L495.4,145.6L488.2,145.6Z" style="fill:#177fa4;fill-rule:nonzero;"/>
    <path d="M443.4,197L441.3,197C431.1,197.7 421.2,200.6 412.3,205.6L412.3,285.4L448.5,285.4L448.5,196.9L443.4,197Z" style="fill:#177fa4;fill-rule:nonzero;"/>
    <path d="M80,186.2C80,161.6 99,145.6 139.6,145.6C180.1,145.6 199.2,161.6 199.2,186.2L199.2,246.7C199.2,271.6 180.1,287.6 139.6,287.6C99.1,287.6 80,271.6 80,246.7L80,186.2ZM163,189.2C163,179 155,174.3 139.6,174.3C124.2,174.3 116.1,179 116.1,189.2L116.1,243.6C116.1,254.1 124.1,258.8 139.5,258.8C154.9,258.8 162.9,254.1 162.9,243.6L163,189.2Z" style="fill:#177fa4;fill-rule:nonzero;"/>
    <path d="M69.2,146.9L36.5,146.9L36.5,112L0,112L0,244.1C0,271.3 12.6,285.2 53.2,285.2L68,285.2L68,255.2L58.7,255.2C43.2,255.2 36.5,250.5 36.5,240.2L36.5,181.3L69.2,181.3L69.2,146.9Z" style="fill:#177fa4;fill-rule:nonzero;"/>
    <path d="M752.7,112.8L716.4,112.8L716.4,160.8C704.2,151.1 689,145.8 673.4,145.9C646.1,145.9 633.4,161.7 633.4,186.2L633.4,247.5C633.4,272.1 646,287.8 673.4,287.8C689.4,287.9 704.9,282.5 717.3,272.3L717.3,285.6L752.7,285.6L752.7,112.8ZM716.4,243.6C710.6,247.8 698.2,256.2 684.7,256.2C671.2,256.2 669.5,249 669.5,241.6L669.5,191.7C669.5,184.5 671.7,177.3 684.7,177.3C697.7,177.3 710.6,185.7 716.4,189.9L716.4,243.6Z" style="fill:#177fa4;fill-rule:nonzero;"/>
    <path d="M617.1,185.6C617.1,161 601.9,145.8 561.7,145.8C522.3,145.8 506,161 506,185.6L506,193.5L539.7,193.5L539.7,186.7C539.7,177.1 545.4,172.8 560.7,172.8C576,172.8 581.4,178.3 581.4,188.3L581.4,206L543.3,206C516,206 501.9,222.3 501.9,240.8L501.9,253.4C501.9,271.6 514.5,287.9 541.6,287.9C556.6,287.9 571,282.5 582.4,272.7L582.4,285.6L617,285.6L617.1,185.6ZM581.6,247.1C575.2,251.8 563.9,259 551.3,259C542.9,259 537.5,256.5 537.5,248.2L537.5,244C537.5,236.8 540,231.4 550.7,231.4L581.6,231.4L581.6,247.1Z" style="fill:#177fa4;fill-rule:nonzero;"/>
    <path d="M771.9,193.6L805.6,193.6L805.6,186.9C805.6,177.3 811.3,173 826.6,173C841.9,173 847.3,178.5 847.3,188.5L847.3,206.2L809.4,206.2C782.1,206.2 768,222.5 768,241L768,253.6C768,271.8 780.6,288.1 807.7,288.1C822.6,288 837,282.5 848.3,272.7L848.3,285.7L882.7,285.7L882.7,185.6C882.7,161 867.5,145.8 827.2,145.8C787.8,145.8 771.6,161 771.6,185.6L771.9,193.6ZM847.4,247.2C841,251.9 829.8,259.1 817.1,259.1C808.7,259.1 803.3,256.6 803.3,248.4L803.3,244C803.3,236.8 805.8,231.6 816.6,231.6L847.5,231.6L847.5,247.2L847.4,247.2Z" style="fill:#177fa4;fill-rule:nonzero;"/>
    <path d="M898.9,285.4L935.1,285.4L935.1,196.9C946.2,187.2 960.1,181.5 974.8,180.6C977.2,180.5 979.6,180.5 982,180.6L982,145.5L974.8,145.5C954.9,145.5 941.7,157.8 934.5,165.6L934.5,147.6L898.9,147.6L898.9,285.4Z" style="fill:#177fa4;fill-rule:nonzero;"/>
    <path d="M296.6,147.6L296.6,243.9C288.1,251.2 277.4,255.4 266.3,256C254.7,256 251.4,251.3 251.4,241.4L251.4,147.6L215.3,147.6L215.3,250.5C215.3,272 229.9,287.5 255,287.5C270.6,288 285.8,282.6 297.5,272.3L297.5,285.3L332.8,285.3L332.8,147.6L296.6,147.6Z" style="fill:#177fa4;fill-rule:nonzero;"/>
    <path d="M1001.3,151.9L1001.3,147.4L1023.9,147.4L1023.9,151.9L1015.3,151.9L1015.3,174L1010,174L1010,151.9L1001.3,151.9ZM1035.9,147.4L1042.7,166.4L1049.5,147.4L1057,147.4L1057,173.9L1052.2,173.9L1052.2,152.5L1044.9,173.9L1040.7,173.9L1033.3,152.5L1033.3,173.9L1028.5,173.9L1028.5,147.4L1035.9,147.4Z" style="fill:#177fa4;fill-rule:nonzero;"/>
</svg>
