<svg xmlns="http://www.w3.org/2000/svg" viewBox="0 0 60.92 60.92"><defs><style>.cls-1{fill:#0260c0;}</style></defs><title>Calendar</title><g id="Layer_2" data-name="Layer 2"><g id="Capa_1" data-name="Capa 1"><g id="Calendar"><path class="cls-1" d="M56.05,6.14H50.68V3.84a3.84,3.84,0,1,0-7.68,0v2.3H34.31V3.84a3.85,3.85,0,0,0-7.69,0v2.3H17.93V3.84a3.85,3.85,0,0,0-7.69,0v2.3H4.87A4.88,4.88,0,0,0,0,11V52a4.87,4.87,0,0,0,4.87,4.87H33.53a.78.78,0,1,0,0-1.55H4.87A3.32,3.32,0,0,1,1.55,52V20H59.38V37.63a.77.77,0,1,0,1.54,0V11A4.88,4.88,0,0,0,56.05,6.14ZM44.54,3.84a2.3,2.3,0,0,1,4.6,0V10a2.3,2.3,0,0,1-4.6,0Zm-16.38,0a2.3,2.3,0,0,1,4.6,0V10a2.3,2.3,0,0,1-4.6,0Zm-16.38,0a2.3,2.3,0,0,1,4.6,0V10a2.3,2.3,0,0,1-4.6,0Zm47.6,14.59H1.55V11A3.32,3.32,0,0,1,4.87,7.69h5.37V10a3.85,3.85,0,0,0,7.69,0V7.69h8.69V10a3.85,3.85,0,0,0,7.69,0V7.69H43V10a3.84,3.84,0,1,0,7.68,0V7.69h5.37A3.34,3.34,0,0,1,59.38,11Z"/><path class="cls-1" d="M26.37,25.59h-4.1a1.81,1.81,0,0,0-1.8,1.8v3.07a1.81,1.81,0,0,0,1.8,1.8h4.1a1.8,1.8,0,0,0,1.79-1.8V27.39A1.8,1.8,0,0,0,26.37,25.59Zm.25,5.12H22V27.14h4.6Z"/><path class="cls-1" d="M14.08,25.59H10a1.8,1.8,0,0,0-1.8,1.8v3.07a1.8,1.8,0,0,0,1.8,1.8h4.09a1.81,1.81,0,0,0,1.8-1.8V27.39A1.81,1.81,0,0,0,14.08,25.59Zm.25,5.12H9.74V27.14h4.59Z"/><path class="cls-1" d="M50.93,25.59H46.84a1.81,1.81,0,0,0-1.8,1.8v3.07a1.81,1.81,0,0,0,1.8,1.8h4.09a1.8,1.8,0,0,0,1.8-1.8V27.39A1.8,1.8,0,0,0,50.93,25.59Zm.25,5.12H46.59V27.14h4.59Z"/><path class="cls-1" d="M26.37,34.81h-4.1a1.8,1.8,0,0,0-1.8,1.79v3.08a1.8,1.8,0,0,0,1.8,1.79h4.1a1.79,1.79,0,0,0,1.79-1.79V36.6A1.79,1.79,0,0,0,26.37,34.81Zm.25,5.12H22V36.35h4.6Z"/><path class="cls-1" d="M14.08,34.81H10a1.79,1.79,0,0,0-1.8,1.79v3.08A1.79,1.79,0,0,0,10,41.47h4.09a1.8,1.8,0,0,0,1.8-1.79V36.6A1.8,1.8,0,0,0,14.08,34.81Zm.25,5.12H9.74V36.35h4.59Z"/><path class="cls-1" d="M26.37,44h-4.1a1.81,1.81,0,0,0-1.8,1.8v3.07a1.81,1.81,0,0,0,1.8,1.8h4.1a1.8,1.8,0,0,0,1.79-1.8V45.82A1.8,1.8,0,0,0,26.37,44Zm.25,5.12H22V45.57h4.6Z"/><path class="cls-1" d="M38.65,25.59H34.56a1.8,1.8,0,0,0-1.8,1.8v3.07a1.8,1.8,0,0,0,1.8,1.8h4.09a1.81,1.81,0,0,0,1.8-1.8V27.39A1.81,1.81,0,0,0,38.65,25.59Zm.25,5.12H34.31V27.14H38.9Z"/><path class="cls-1" d="M39.42,35.58a.76.76,0,0,1-.77.77H34.31v3.58h.25a.77.77,0,1,1,0,1.54,1.79,1.79,0,0,1-1.8-1.79V36.6a1.79,1.79,0,0,1,1.8-1.79h4.09A.76.76,0,0,1,39.42,35.58Z"/><path class="cls-1" d="M14.08,44H10a1.8,1.8,0,0,0-1.8,1.8v3.07a1.8,1.8,0,0,0,1.8,1.8h4.09a1.81,1.81,0,0,0,1.8-1.8V45.82A1.81,1.81,0,0,0,14.08,44Zm.25,5.12H9.74V45.57h4.59Z"/><path class="cls-1" d="M47.86,34.81A13.06,13.06,0,1,0,60.92,47.87,13.07,13.07,0,0,0,47.86,34.81Zm0,24.57A11.52,11.52,0,1,1,59.38,47.87,11.53,11.53,0,0,1,47.86,59.38Z"/><path class="cls-1" d="M55.05,44.85l-8.69,8.68a.79.79,0,0,1-1.09,0l-4.34-4.34a.77.77,0,0,1,0-1.07.75.75,0,0,1,.54-.24h0a.78.78,0,0,1,.53.21l3.8,3.8L54,43.75a.78.78,0,0,1,1.1,1.1Z"/></g></g></g></svg>