<svg xmlns="http://www.w3.org/2000/svg" viewBox="0 0 35.61 48.38"><defs><style>.cls-1{fill:#0260c0;}</style></defs><title>Asset 44</title><g id="Layer_2" data-name="Layer 2"><g id="Capa_1" data-name="Capa 1"><path class="cls-1" d="M17.8,0A17.83,17.83,0,0,0,0,17.81a20.39,20.39,0,0,0,1.51,6.85,28.25,28.25,0,0,0,2.07,3.87L16,47.28a2.11,2.11,0,0,0,3.7,0L32,28.53a28.77,28.77,0,0,0,2.07-3.87,20.51,20.51,0,0,0,1.51-6.85A17.83,17.83,0,0,0,17.8,0ZM32.6,24a27.62,27.62,0,0,1-1.92,3.6L18.3,46.39c-.11.17-.26.39-.5.39s-.38-.22-.49-.39L4.93,27.63A25.4,25.4,0,0,1,3,24a18.92,18.92,0,0,1-1.39-6.22,16.19,16.19,0,0,1,32.37,0A19.3,19.3,0,0,1,32.6,24Z"/><path class="cls-1" d="M17.8,8.5a9.31,9.31,0,1,0,9.31,9.31A9.33,9.33,0,0,0,17.8,8.5Zm0,17a7.68,7.68,0,1,1,7.69-7.68A7.69,7.69,0,0,1,17.8,25.49Z"/></g></g></svg>